G04 start of page 5 for group -4063 idx -4063 *
G04 Title: Wireless Club Reflow Oven, componentmask *
G04 Creator: pcb 20140316 *
G04 CreationDate: Mon 24 Oct 2016 07:50:18 PM GMT UTC *
G04 For: kevin *
G04 Format: Gerber/RS-274X *
G04 PCB-Dimensions (mil): 2250.00 2650.00 *
G04 PCB-Coordinate-Origin: lower left *
%MOIN*%
%FSLAX25Y25*%
%LNTOPMASK*%
%ADD40C,0.1680*%
%ADD39C,0.0924*%
%ADD38C,0.0001*%
%ADD37C,0.0750*%
G54D37*X110000Y165000D03*
Y155000D03*
Y145000D03*
Y135000D03*
Y125000D03*
X12500D03*
X22500D03*
X32500D03*
X42500D03*
X62500D03*
X52500D03*
X72500D03*
G54D38*G36*
X78750Y128750D02*Y121250D01*
X86250D01*
Y128750D01*
X78750D01*
G37*
G54D37*X110000Y215000D03*
Y205000D03*
Y195000D03*
Y185000D03*
G54D38*G36*
X106250Y248750D02*Y241250D01*
X113750D01*
Y248750D01*
X106250D01*
G37*
G54D37*X110000Y235000D03*
Y225000D03*
X170000Y175000D03*
Y185000D03*
Y195000D03*
Y205000D03*
Y215000D03*
Y225000D03*
Y235000D03*
Y245000D03*
X210000Y205000D03*
Y195000D03*
Y185000D03*
X110000Y175000D03*
X82500Y235000D03*
Y245000D03*
X72500D03*
Y235000D03*
X62500D03*
X52500D03*
X42500D03*
X62500Y245000D03*
X52500D03*
X42500D03*
X12500Y215000D03*
X22500D03*
X32500D03*
X42500D03*
X62500D03*
X52500D03*
X72500D03*
G54D38*G36*
X78750Y218750D02*Y211250D01*
X86250D01*
Y218750D01*
X78750D01*
G37*
G54D37*X110000Y115000D03*
Y105000D03*
Y95000D03*
Y85000D03*
X170000D03*
Y95000D03*
Y105000D03*
Y115000D03*
Y125000D03*
Y135000D03*
Y145000D03*
Y155000D03*
Y165000D03*
X210000Y175000D03*
Y165000D03*
Y155000D03*
Y145000D03*
Y135000D03*
Y125000D03*
Y115000D03*
Y105000D03*
Y95000D03*
G54D38*G36*
X206250Y88750D02*Y81250D01*
X213750D01*
Y88750D01*
X206250D01*
G37*
G36*
X116250Y68750D02*Y61250D01*
X123750D01*
Y68750D01*
X116250D01*
G37*
G54D39*X100000Y65000D03*
G54D37*X120000Y55000D03*
Y45000D03*
Y35000D03*
Y25000D03*
Y15000D03*
G54D38*G36*
X95382Y29618D02*Y20382D01*
X104618D01*
Y29618D01*
X95382D01*
G37*
G54D37*X65000Y15000D03*
Y25000D03*
X160000Y15000D03*
Y25000D03*
Y35000D03*
Y45000D03*
Y55000D03*
Y65000D03*
G54D40*X20000Y245000D03*
X205000D03*
Y20000D03*
X20000D03*
M02*
