M48
INCH
T36C0.125
T35C0.035
T34C0.039
T33C0.041
%
T35
X015000Y007500
T34
X010000Y006500
X010000Y002500
T33
X001250Y021500
X001250Y012500
X002250Y021500
X002250Y012500
X003250Y021500
X003250Y012500
X004250Y024500
X004250Y023500
X004250Y021500
X004250Y012500
X005250Y024500
X005250Y023500
X005250Y021500
X005250Y012500
X006250Y024500
X006250Y023500
X006250Y021500
X006250Y012500
X006500Y002500
X006500Y001500
X007250Y024500
X007250Y023500
X007250Y021500
X007250Y012500
X008250Y024500
X008250Y023500
X008250Y021500
X008250Y012500
X011000Y024500
X011000Y023500
X011000Y022500
X011000Y021500
X011000Y020500
X011000Y019500
X011000Y018500
X011000Y017500
X011000Y016500
X011000Y015500
X011000Y014500
X011000Y013500
X011000Y012500
X011000Y011500
X011000Y010500
X011000Y009500
X011000Y008500
X012000Y006500
X012000Y005500
X012000Y004500
X012000Y003500
X012000Y002500
X012000Y001500
X016000Y006500
X016000Y005500
X016000Y004500
X016000Y003500
X016000Y002500
X016000Y001500
X017000Y024500
X017000Y023500
X017000Y022500
X017000Y021500
X017000Y020500
X017000Y019500
X017000Y018500
X017000Y017500
X017000Y016500
X017000Y015500
X017000Y014500
X017000Y013500
X017000Y012500
X017000Y011500
X017000Y010500
X017000Y009500
X017000Y008500
X021000Y020500
X021000Y019500
X021000Y018500
X021000Y017500
X021000Y016500
X021000Y015500
X021000Y014500
X021000Y013500
X021000Y012500
X021000Y011500
X021000Y010500
X021000Y009500
X021000Y008500
T36
X002000Y024500
X002000Y002000
X020500Y024500
X020500Y002000
M30
