G04 start of page 7 for group -4079 idx -4079 *
G04 Title: Wireless Club Reflow Oven, topsilk *
G04 Creator: pcb 20140316 *
G04 CreationDate: Mon 24 Oct 2016 07:50:18 PM GMT UTC *
G04 For: kevin *
G04 Format: Gerber/RS-274X *
G04 PCB-Dimensions (mil): 2250.00 2650.00 *
G04 PCB-Coordinate-Origin: lower left *
%MOIN*%
%FSLAX25Y25*%
%LNTOPSILK*%
%ADD45C,0.0100*%
G54D45*X133040Y13480D02*X132550Y13970D01*
X133040Y13480D02*X134510D01*
X135000Y13970D02*X134510Y13480D01*
X135000Y16910D02*Y13970D01*
Y16910D02*X134510Y17400D01*
X133040D02*X134510D01*
X133040D02*X132550Y16910D01*
Y15930D01*
X133040Y15440D02*X132550Y15930D01*
X133040Y15440D02*X134020D01*
X131374Y17400D02*Y13480D01*
X128924Y17400D01*
Y13480D01*
X127258Y17400D02*Y13480D01*
X125984D02*X125298Y14166D01*
Y16714D02*Y14166D01*
X125984Y17400D02*X125298Y16714D01*
X125984Y17400D02*X127748D01*
X125984Y13480D02*X127748D01*
X153040D02*X152550Y13970D01*
X153040Y13480D02*X154510D01*
X155000Y13970D02*X154510Y13480D01*
X155000Y16910D02*Y13970D01*
Y16910D02*X154510Y17400D01*
X153040D02*X154510D01*
X153040D02*X152550Y16910D01*
Y15930D01*
X153040Y15440D02*X152550Y15930D01*
X153040Y15440D02*X154020D01*
X151374Y17400D02*Y13480D01*
X148924Y17400D01*
Y13480D01*
X147258Y17400D02*Y13480D01*
X145984D02*X145298Y14166D01*
Y16714D02*Y14166D01*
X145984Y17400D02*X145298Y16714D01*
X145984Y17400D02*X147748D01*
X145984Y13480D02*X147748D01*
X152500Y7400D02*Y3480D01*
X150540Y7400D02*X152500D01*
X147894Y5244D02*X149364D01*
X147404Y7400D02*X149364D01*
Y3480D01*
X147404D02*X149364D01*
X146228D02*X145248Y7400D01*
X144268Y3480D01*
X141622Y5244D02*X143092D01*
X141132Y7400D02*X143092D01*
Y3480D01*
X141132D02*X143092D01*
X139956Y7400D02*Y3480D01*
X137996Y7400D02*X139956D01*
X133096Y3480D02*X132606Y3970D01*
X133096Y3480D02*X134566D01*
X135056Y3970D02*X134566Y3480D01*
X135056Y4950D02*Y3970D01*
Y4950D02*X134566Y5440D01*
X133096D02*X134566D01*
X133096D02*X132606Y5930D01*
Y6910D02*Y5930D01*
X133096Y7400D02*X132606Y6910D01*
X133096Y7400D02*X134566D01*
X135056Y6910D02*X134566Y7400D01*
X131430D02*Y3480D01*
X128980Y7400D02*Y3480D01*
Y5440D02*X131430D01*
X126824Y3480D02*X127804D01*
X127314Y7400D02*Y3480D01*
X126824Y7400D02*X127804D01*
X125648D02*Y3480D01*
X123688D02*X125648D01*
X124178Y5244D02*X125648D01*
X120552Y3480D02*X122512D01*
X121532Y7400D02*Y3480D01*
X117906Y5244D02*X119376D01*
X117416Y7400D02*X119376D01*
Y3480D01*
X117416D02*X119376D01*
X114280D02*X116240D01*
X114280D02*X113790Y3970D01*
Y4950D02*Y3970D01*
X114280Y5440D02*X113790Y4950D01*
X114280Y5440D02*X115750D01*
Y7400D02*Y3480D01*
X114966Y5440D02*X113790Y7400D01*
X132500Y47400D02*Y44460D01*
X131814Y43480D01*
X130736D02*X131814D01*
X130736D02*X130050Y44460D01*
Y47400D02*Y44460D01*
Y45440D02*X132500D01*
X128874Y43970D02*X128384Y43480D01*
X126914D02*X128384D01*
X126914D02*X126424Y43970D01*
Y44950D02*Y43970D01*
X128874Y47400D02*X126424Y44950D01*
Y47400D02*X128874D01*
X153040D02*X155000D01*
X153040D02*X152550Y46910D01*
Y45734D01*
X153040Y45244D02*X152550Y45734D01*
X153040Y45244D02*X154510D01*
Y47400D02*Y43480D01*
X153040D02*X155000D01*
X153040D02*X152550Y43970D01*
Y44754D02*Y43970D01*
X153040Y45244D02*X152550Y44754D01*
X151374Y43970D02*X150884Y43480D01*
X149414D02*X150884D01*
X149414D02*X148924Y43970D01*
Y44950D02*Y43970D01*
X151374Y47400D02*X148924Y44950D01*
Y47400D02*X151374D01*
X215000Y47940D02*Y45980D01*
Y47940D02*X214510Y49900D01*
X213530Y47940D01*
X212550Y49900D01*
X212060Y47940D01*
Y45980D01*
X209904D02*X210884D01*
X210394Y49900D02*Y45980D01*
X209904Y49900D02*X210884D01*
X206768Y45980D02*X208728D01*
X206768D02*X206278Y46470D01*
Y47450D02*Y46470D01*
X206768Y47940D02*X206278Y47450D01*
X206768Y47940D02*X208238D01*
Y49900D02*Y45980D01*
X207454Y47940D02*X206278Y49900D01*
X203632Y47744D02*X205102D01*
X203142Y49900D02*X205102D01*
Y45980D01*
X203142D02*X205102D01*
X201966Y49900D02*Y45980D01*
X200006Y49900D02*X201966D01*
X197360Y47744D02*X198830D01*
X196870Y49900D02*X198830D01*
Y45980D01*
X196870D02*X198830D01*
X193734D02*X193244Y46470D01*
X193734Y45980D02*X195204D01*
X195694Y46470D02*X195204Y45980D01*
X195694Y47450D02*Y46470D01*
Y47450D02*X195204Y47940D01*
X193734D02*X195204D01*
X193734D02*X193244Y48430D01*
Y49410D02*Y48430D01*
X193734Y49900D02*X193244Y49410D01*
X193734Y49900D02*X195204D01*
X195694Y49410D02*X195204Y49900D01*
X190108Y45980D02*X189618Y46470D01*
X190108Y45980D02*X191578D01*
X192068Y46470D02*X191578Y45980D01*
X192068Y47450D02*Y46470D01*
Y47450D02*X191578Y47940D01*
X190108D02*X191578D01*
X190108D02*X189618Y48430D01*
Y49410D02*Y48430D01*
X190108Y49900D02*X189618Y49410D01*
X190108Y49900D02*X191578D01*
X192068Y49410D02*X191578Y49900D01*
X184718D02*X185992D01*
X186678Y49214D02*X185992Y49900D01*
X186678Y49214D02*Y46666D01*
X185992Y45980D01*
X184718D02*X185992D01*
X183542Y49900D02*Y45980D01*
X181582Y49900D02*X183542D01*
X180406Y49410D02*Y45980D01*
Y49410D02*X179916Y49900D01*
X178936D02*X179916D01*
X178936D02*X178446Y49410D01*
Y45980D01*
X175310Y49900D02*X177270D01*
X175310D02*X174820Y49410D01*
Y48234D01*
X175310Y47744D02*X174820Y48234D01*
X175310Y47744D02*X176780D01*
Y49900D02*Y45980D01*
X175310D02*X177270D01*
X175310D02*X174820Y46470D01*
Y47254D02*Y46470D01*
X175310Y47744D02*X174820Y47254D01*
X132500Y57400D02*Y54460D01*
X131814Y53480D01*
X130736D02*X131814D01*
X130736D02*X130050Y54460D01*
Y57400D02*Y54460D01*
Y55440D02*X132500D01*
X128874Y54264D02*X128090Y53480D01*
Y57400D02*Y53480D01*
X127404Y57400D02*X128874D01*
X153040D02*X155000D01*
X153040D02*X152550Y56910D01*
Y55734D01*
X153040Y55244D02*X152550Y55734D01*
X153040Y55244D02*X154510D01*
Y57400D02*Y53480D01*
X153040D02*X155000D01*
X153040D02*X152550Y53970D01*
Y54754D02*Y53970D01*
X153040Y55244D02*X152550Y54754D01*
X151374Y54264D02*X150590Y53480D01*
Y57400D02*Y53480D01*
X149904Y57400D02*X151374D01*
X213040Y53480D02*X215000D01*
X213040D02*X212550Y53970D01*
Y54950D02*Y53970D01*
X213040Y55440D02*X212550Y54950D01*
X213040Y55440D02*X214510D01*
Y57400D02*Y53480D01*
X213726Y55440D02*X212550Y57400D01*
X209904Y55244D02*X211374D01*
X209414Y57400D02*X211374D01*
Y53480D01*
X209414D02*X211374D01*
X208238Y57400D02*Y53480D01*
X206278D02*X208238D01*
X206768Y55244D02*X208238D01*
X205102Y57400D02*Y53480D01*
X203142Y57400D02*X205102D01*
X201966Y56910D02*Y53970D01*
X201476Y53480D01*
X200496D02*X201476D01*
X200496D02*X200006Y53970D01*
Y56910D02*Y53970D01*
X200496Y57400D02*X200006Y56910D01*
X200496Y57400D02*X201476D01*
X201966Y56910D02*X201476Y57400D01*
X198830Y55440D02*Y53480D01*
Y55440D02*X198340Y57400D01*
X197360Y55440D01*
X196380Y57400D01*
X195890Y55440D01*
Y53480D01*
X192950Y56910D02*Y53970D01*
X192460Y53480D01*
X191480D02*X192460D01*
X191480D02*X190990Y53970D01*
Y56910D02*Y53970D01*
X191480Y57400D02*X190990Y56910D01*
X191480Y57400D02*X192460D01*
X192950Y56910D02*X192460Y57400D01*
X189814Y53480D02*X188834Y57400D01*
X187854Y53480D01*
X185208Y55244D02*X186678D01*
X184718Y57400D02*X186678D01*
Y53480D01*
X184718D02*X186678D01*
X183542Y57400D02*Y53480D01*
X181092Y57400D01*
Y53480D01*
X132500Y67400D02*Y63480D01*
X130540Y67400D02*X132500D01*
X129364Y63480D02*X128384Y67400D01*
X127404Y63480D01*
X155000Y67400D02*Y63480D01*
X152550Y67400D02*Y63480D01*
Y65440D02*X155000D01*
X151374Y63480D02*X150394Y67400D01*
X149414Y63480D01*
X215000Y60980D02*X214020Y64900D01*
X213040Y60980D01*
X211864Y61470D02*X211374Y60980D01*
X209904D02*X211374D01*
X209904D02*X209414Y61470D01*
Y62450D02*Y61470D01*
X211864Y64900D02*X209414Y62450D01*
Y64900D02*X211864D01*
X132500Y37400D02*Y34460D01*
X131814Y33480D01*
X130736D02*X131814D01*
X130736D02*X130050Y34460D01*
Y37400D02*Y34460D01*
Y35440D02*X132500D01*
X128874Y33970D02*X128384Y33480D01*
X127404D02*X128384D01*
X127404D02*X126914Y33970D01*
X127404Y37400D02*X126914Y36910D01*
X127404Y37400D02*X128384D01*
X128874Y36910D02*X128384Y37400D01*
X127404Y35244D02*X128384D01*
X126914Y34754D02*Y33970D01*
Y36910D02*Y35734D01*
X127404Y35244D01*
X126914Y34754D02*X127404Y35244D01*
X153040Y37400D02*X155000D01*
X153040D02*X152550Y36910D01*
Y35734D01*
X153040Y35244D02*X152550Y35734D01*
X153040Y35244D02*X154510D01*
Y37400D02*Y33480D01*
X153040D02*X155000D01*
X153040D02*X152550Y33970D01*
Y34754D02*Y33970D01*
X153040Y35244D02*X152550Y34754D01*
X151374Y33970D02*X150884Y33480D01*
X149904D02*X150884D01*
X149904D02*X149414Y33970D01*
X149904Y37400D02*X149414Y36910D01*
X149904Y37400D02*X150884D01*
X151374Y36910D02*X150884Y37400D01*
X149904Y35244D02*X150884D01*
X149414Y34754D02*Y33970D01*
Y36910D02*Y35734D01*
X149904Y35244D01*
X149414Y34754D02*X149904Y35244D01*
X215000Y34900D02*Y30980D01*
X212550Y34900D01*
Y30980D01*
X211374Y34410D02*Y31470D01*
X210884Y30980D01*
X209904D02*X210884D01*
X209904D02*X209414Y31470D01*
Y34410D02*Y31470D01*
X209904Y34900D02*X209414Y34410D01*
X209904Y34900D02*X210884D01*
X211374Y34410D02*X210884Y34900D01*
X206278Y30980D02*X208238D01*
X206278D02*X205788Y31470D01*
Y32450D02*Y31470D01*
X206278Y32940D02*X205788Y32450D01*
X206278Y32940D02*X207748D01*
Y34900D02*Y30980D01*
X206964Y32940D02*X205788Y34900D01*
X202652Y30980D02*X204612D01*
X203632Y34900D02*Y30980D01*
X201476Y34900D02*Y30980D01*
X199026Y34900D02*Y30980D01*
Y32940D02*X201476D01*
X196380Y32744D02*X197850D01*
X195890Y34900D02*X197850D01*
Y30980D01*
X195890D02*X197850D01*
X194714Y34900D02*Y31960D01*
X194028Y30980D01*
X192950D02*X194028D01*
X192950D02*X192264Y31960D01*
Y34900D02*Y31960D01*
Y32940D02*X194714D01*
X189128Y30980D02*X188638Y31470D01*
X189128Y30980D02*X190598D01*
X191088Y31470D02*X190598Y30980D01*
X191088Y32450D02*Y31470D01*
Y32450D02*X190598Y32940D01*
X189128D02*X190598D01*
X189128D02*X188638Y33430D01*
Y34410D02*Y33430D01*
X189128Y34900D02*X188638Y34410D01*
X189128Y34900D02*X190598D01*
X191088Y34410D02*X190598Y34900D01*
X185502Y30980D02*X187462D01*
X186482Y34900D02*Y30980D01*
X182856Y32744D02*X184326D01*
X182366Y34900D02*X184326D01*
Y30980D01*
X182366D02*X184326D01*
X179230D02*X181190D01*
X179230D02*X178740Y31470D01*
Y32450D02*Y31470D01*
X179230Y32940D02*X178740Y32450D01*
X179230Y32940D02*X180700D01*
Y34900D02*Y30980D01*
X179916Y32940D02*X178740Y34900D01*
X177564D02*Y30980D01*
X175114Y34900D01*
Y30980D01*
X215000Y41910D02*Y38480D01*
Y41910D02*X214510Y42400D01*
X213530D02*X214510D01*
X213530D02*X213040Y41910D01*
Y38480D01*
X211864Y42400D02*Y38480D01*
X209414Y42400D01*
Y38480D01*
X207258D02*X208238D01*
X207748Y42400D02*Y38480D01*
X207258Y42400D02*X208238D01*
X206082Y38480D02*X205102Y42400D01*
X204122Y38480D01*
X201476Y40244D02*X202946D01*
X200986Y42400D02*X202946D01*
Y38480D01*
X200986D02*X202946D01*
X197850D02*X199810D01*
X197850D02*X197360Y38970D01*
Y39950D02*Y38970D01*
X197850Y40440D02*X197360Y39950D01*
X197850Y40440D02*X199320D01*
Y42400D02*Y38480D01*
X198536Y40440D02*X197360Y42400D01*
X194224Y38480D02*X193734Y38970D01*
X194224Y38480D02*X195694D01*
X196184Y38970D02*X195694Y38480D01*
X196184Y39950D02*Y38970D01*
Y39950D02*X195694Y40440D01*
X194224D02*X195694D01*
X194224D02*X193734Y40930D01*
Y41910D02*Y40930D01*
X194224Y42400D02*X193734Y41910D01*
X194224Y42400D02*X195694D01*
X196184Y41910D02*X195694Y42400D01*
X191578Y38480D02*X192558D01*
X192068Y42400D02*Y38480D01*
X191578Y42400D02*X192558D01*
X188442Y38480D02*X190402D01*
X189422Y42400D02*Y38480D01*
X187266D02*X186286Y40440D01*
X185306Y38480D01*
X186286Y42400D02*Y40440D01*
X132500Y27400D02*Y24460D01*
X131814Y23480D01*
X130736D02*X131814D01*
X130736D02*X130050Y24460D01*
Y27400D02*Y24460D01*
Y25440D02*X132500D01*
X128874Y25930D02*X126914Y23480D01*
X126424Y25930D02*X128874D01*
X126914Y27400D02*Y23480D01*
X153040Y27400D02*X155000D01*
X153040D02*X152550Y26910D01*
Y25734D01*
X153040Y25244D02*X152550Y25734D01*
X153040Y25244D02*X154510D01*
Y27400D02*Y23480D01*
X153040D02*X155000D01*
X153040D02*X152550Y23970D01*
Y24754D02*Y23970D01*
X153040Y25244D02*X152550Y24754D01*
X151374Y25930D02*X149414Y23480D01*
X148924Y25930D02*X151374D01*
X149414Y27400D02*Y23480D01*
X190000Y23970D02*X189510Y23480D01*
X188040D02*X189510D01*
X188040D02*X187550Y23970D01*
Y24950D02*Y23970D01*
X190000Y27400D02*X187550Y24950D01*
Y27400D02*X190000D01*
X186374Y26910D02*X185884Y27400D01*
X186374Y26910D02*Y23970D01*
X185884Y23480D01*
X184904D02*X185884D01*
X184904D02*X184414Y23970D01*
Y26910D02*Y23970D01*
X184904Y27400D02*X184414Y26910D01*
X184904Y27400D02*X185884D01*
X186374Y26420D02*X184414Y24460D01*
X183238Y24264D02*X182454Y23480D01*
Y27400D02*Y23480D01*
X181768Y27400D02*X183238D01*
X179122Y23480D02*X178632Y23970D01*
X179122Y23480D02*X180102D01*
X180592Y23970D02*X180102Y23480D01*
X180592Y26910D02*Y23970D01*
Y26910D02*X180102Y27400D01*
X179122Y25244D02*X178632Y25734D01*
X179122Y25244D02*X180592D01*
X179122Y27400D02*X180102D01*
X179122D02*X178632Y26910D01*
Y25734D01*
X127500Y227400D02*Y224460D01*
X126814Y223480D01*
X125736D02*X126814D01*
X125736D02*X125050Y224460D01*
Y227400D02*Y224460D01*
Y225440D02*X127500D01*
X121914Y223480D02*X123874D01*
X121914D02*X121424Y223970D01*
Y224950D02*Y223970D01*
X121914Y225440D02*X121424Y224950D01*
X121914Y225440D02*X123384D01*
Y227400D02*Y223480D01*
X122600Y225440D02*X121424Y227400D01*
X118778Y225244D02*X120248D01*
X118288Y227400D02*X120248D01*
Y223480D01*
X118288D02*X120248D01*
X117112Y227400D02*Y223480D01*
X115152D02*X117112D01*
X115642Y225244D02*X117112D01*
X137010Y187400D02*Y183480D01*
X135736D02*X135050Y184166D01*
Y186714D02*Y184166D01*
X135736Y187400D02*X135050Y186714D01*
X135736Y187400D02*X137500D01*
X135736Y183480D02*X137500D01*
X132894D02*X133874D01*
X133384Y187400D02*Y183480D01*
X132894Y187400D02*X133874D01*
X129758Y183480D02*X129268Y183970D01*
X129758Y183480D02*X131228D01*
X131718Y183970D02*X131228Y183480D01*
X131718Y186910D02*Y183970D01*
Y186910D02*X131228Y187400D01*
X129758D02*X131228D01*
X129758D02*X129268Y186910D01*
Y185930D01*
X129758Y185440D02*X129268Y185930D01*
X129758Y185440D02*X130738D01*
X127112Y183480D02*X128092D01*
X127602Y187400D02*Y183480D01*
X127112Y187400D02*X128092D01*
X123976Y183480D02*X125936D01*
X124956Y187400D02*Y183480D01*
X121036Y184264D02*X120252Y183480D01*
Y187400D02*Y183480D01*
X119566Y187400D02*X121036D01*
X117900D02*X115940Y183480D01*
X118390D01*
X164510Y187400D02*Y183480D01*
X163236D02*X162550Y184166D01*
Y186714D02*Y184166D01*
X163236Y187400D02*X162550Y186714D01*
X163236Y187400D02*X165000D01*
X163236Y183480D02*X165000D01*
X160394D02*X161374D01*
X160884Y187400D02*Y183480D01*
X160394Y187400D02*X161374D01*
X157258Y183480D02*X156768Y183970D01*
X157258Y183480D02*X158728D01*
X159218Y183970D02*X158728Y183480D01*
X159218Y186910D02*Y183970D01*
Y186910D02*X158728Y187400D01*
X157258D02*X158728D01*
X157258D02*X156768Y186910D01*
Y185930D01*
X157258Y185440D02*X156768Y185930D01*
X157258Y185440D02*X158238D01*
X154612Y183480D02*X155592D01*
X155102Y187400D02*Y183480D01*
X154612Y187400D02*X155592D01*
X151476Y183480D02*X153436D01*
X152456Y187400D02*Y183480D01*
X147066D02*X146576Y183970D01*
X147066Y183480D02*X148046D01*
X148536Y183970D02*X148046Y183480D01*
X148536Y186910D02*Y183970D01*
Y186910D02*X148046Y187400D01*
X147066Y185244D02*X146576Y185734D01*
X147066Y185244D02*X148536D01*
X147066Y187400D02*X148046D01*
X147066D02*X146576Y186910D01*
Y185734D01*
X164510Y147400D02*Y143480D01*
X163236D02*X162550Y144166D01*
Y146714D02*Y144166D01*
X163236Y147400D02*X162550Y146714D01*
X163236Y147400D02*X165000D01*
X163236Y143480D02*X165000D01*
X160394D02*X161374D01*
X160884Y147400D02*Y143480D01*
X160394Y147400D02*X161374D01*
X157258Y143480D02*X156768Y143970D01*
X157258Y143480D02*X158728D01*
X159218Y143970D02*X158728Y143480D01*
X159218Y146910D02*Y143970D01*
Y146910D02*X158728Y147400D01*
X157258D02*X158728D01*
X157258D02*X156768Y146910D01*
Y145930D01*
X157258Y145440D02*X156768Y145930D01*
X157258Y145440D02*X158238D01*
X154612Y143480D02*X155592D01*
X155102Y147400D02*Y143480D01*
X154612Y147400D02*X155592D01*
X151476Y143480D02*X153436D01*
X152456Y147400D02*Y143480D01*
X148536Y143970D02*X148046Y143480D01*
X146576D02*X148046D01*
X146576D02*X146086Y143970D01*
Y144950D02*Y143970D01*
X148536Y147400D02*X146086Y144950D01*
Y147400D02*X148536D01*
X164510Y157400D02*Y153480D01*
X163236D02*X162550Y154166D01*
Y156714D02*Y154166D01*
X163236Y157400D02*X162550Y156714D01*
X163236Y157400D02*X165000D01*
X163236Y153480D02*X165000D01*
X160394D02*X161374D01*
X160884Y157400D02*Y153480D01*
X160394Y157400D02*X161374D01*
X157258Y153480D02*X156768Y153970D01*
X157258Y153480D02*X158728D01*
X159218Y153970D02*X158728Y153480D01*
X159218Y156910D02*Y153970D01*
Y156910D02*X158728Y157400D01*
X157258D02*X158728D01*
X157258D02*X156768Y156910D01*
Y155930D01*
X157258Y155440D02*X156768Y155930D01*
X157258Y155440D02*X158238D01*
X154612Y153480D02*X155592D01*
X155102Y157400D02*Y153480D01*
X154612Y157400D02*X155592D01*
X151476Y153480D02*X153436D01*
X152456Y157400D02*Y153480D01*
X148536Y153970D02*X148046Y153480D01*
X147066D02*X148046D01*
X147066D02*X146576Y153970D01*
X147066Y157400D02*X146576Y156910D01*
X147066Y157400D02*X148046D01*
X148536Y156910D02*X148046Y157400D01*
X147066Y155244D02*X148046D01*
X146576Y154754D02*Y153970D01*
Y156910D02*Y155734D01*
X147066Y155244D01*
X146576Y154754D02*X147066Y155244D01*
X163040Y133480D02*X162550Y133970D01*
X163040Y133480D02*X164510D01*
X165000Y133970D02*X164510Y133480D01*
X165000Y136910D02*Y133970D01*
Y136910D02*X164510Y137400D01*
X163040D02*X164510D01*
X163040D02*X162550Y136910D01*
Y135930D01*
X163040Y135440D02*X162550Y135930D01*
X163040Y135440D02*X164020D01*
X161374Y137400D02*Y133480D01*
X158924Y137400D01*
Y133480D01*
X157258Y137400D02*Y133480D01*
X155984D02*X155298Y134166D01*
Y136714D02*Y134166D01*
X155984Y137400D02*X155298Y136714D01*
X155984Y137400D02*X157748D01*
X155984Y133480D02*X157748D01*
X137010Y197400D02*Y193480D01*
X135736D02*X135050Y194166D01*
Y196714D02*Y194166D01*
X135736Y197400D02*X135050Y196714D01*
X135736Y197400D02*X137500D01*
X135736Y193480D02*X137500D01*
X132894D02*X133874D01*
X133384Y197400D02*Y193480D01*
X132894Y197400D02*X133874D01*
X129758Y193480D02*X129268Y193970D01*
X129758Y193480D02*X131228D01*
X131718Y193970D02*X131228Y193480D01*
X131718Y196910D02*Y193970D01*
Y196910D02*X131228Y197400D01*
X129758D02*X131228D01*
X129758D02*X129268Y196910D01*
Y195930D01*
X129758Y195440D02*X129268Y195930D01*
X129758Y195440D02*X130738D01*
X127112Y193480D02*X128092D01*
X127602Y197400D02*Y193480D01*
X127112Y197400D02*X128092D01*
X123976Y193480D02*X125936D01*
X124956Y197400D02*Y193480D01*
X121036Y194264D02*X120252Y193480D01*
Y197400D02*Y193480D01*
X119566Y197400D02*X121036D01*
X116920Y193480D02*X116430Y193970D01*
X116920Y193480D02*X117900D01*
X118390Y193970D02*X117900Y193480D01*
X118390Y196910D02*Y193970D01*
Y196910D02*X117900Y197400D01*
X116920Y195244D02*X116430Y195734D01*
X116920Y195244D02*X118390D01*
X116920Y197400D02*X117900D01*
X116920D02*X116430Y196910D01*
Y195734D01*
X137010Y167400D02*Y163480D01*
X135736D02*X135050Y164166D01*
Y166714D02*Y164166D01*
X135736Y167400D02*X135050Y166714D01*
X135736Y167400D02*X137500D01*
X135736Y163480D02*X137500D01*
X132894D02*X133874D01*
X133384Y167400D02*Y163480D01*
X132894Y167400D02*X133874D01*
X129758Y163480D02*X129268Y163970D01*
X129758Y163480D02*X131228D01*
X131718Y163970D02*X131228Y163480D01*
X131718Y166910D02*Y163970D01*
Y166910D02*X131228Y167400D01*
X129758D02*X131228D01*
X129758D02*X129268Y166910D01*
Y165930D01*
X129758Y165440D02*X129268Y165930D01*
X129758Y165440D02*X130738D01*
X127112Y163480D02*X128092D01*
X127602Y167400D02*Y163480D01*
X127112Y167400D02*X128092D01*
X123976Y163480D02*X125936D01*
X124956Y167400D02*Y163480D01*
X121036Y164264D02*X120252Y163480D01*
Y167400D02*Y163480D01*
X119566Y167400D02*X121036D01*
X117900D02*X116430Y165440D01*
Y163970D01*
X116920Y163480D02*X116430Y163970D01*
X116920Y163480D02*X117900D01*
X118390Y163970D02*X117900Y163480D01*
X118390Y164950D02*Y163970D01*
Y164950D02*X117900Y165440D01*
X116430D02*X117900D01*
X164510Y167400D02*Y163480D01*
X163236D02*X162550Y164166D01*
Y166714D02*Y164166D01*
X163236Y167400D02*X162550Y166714D01*
X163236Y167400D02*X165000D01*
X163236Y163480D02*X165000D01*
X160394D02*X161374D01*
X160884Y167400D02*Y163480D01*
X160394Y167400D02*X161374D01*
X157258Y163480D02*X156768Y163970D01*
X157258Y163480D02*X158728D01*
X159218Y163970D02*X158728Y163480D01*
X159218Y166910D02*Y163970D01*
Y166910D02*X158728Y167400D01*
X157258D02*X158728D01*
X157258D02*X156768Y166910D01*
Y165930D01*
X157258Y165440D02*X156768Y165930D01*
X157258Y165440D02*X158238D01*
X154612Y163480D02*X155592D01*
X155102Y167400D02*Y163480D01*
X154612Y167400D02*X155592D01*
X151476Y163480D02*X153436D01*
X152456Y167400D02*Y163480D01*
X148536Y165930D02*X146576Y163480D01*
X146086Y165930D02*X148536D01*
X146576Y167400D02*Y163480D01*
X164510Y177400D02*Y173480D01*
X163236D02*X162550Y174166D01*
Y176714D02*Y174166D01*
X163236Y177400D02*X162550Y176714D01*
X163236Y177400D02*X165000D01*
X163236Y173480D02*X165000D01*
X160394D02*X161374D01*
X160884Y177400D02*Y173480D01*
X160394Y177400D02*X161374D01*
X157258Y173480D02*X156768Y173970D01*
X157258Y173480D02*X158728D01*
X159218Y173970D02*X158728Y173480D01*
X159218Y176910D02*Y173970D01*
Y176910D02*X158728Y177400D01*
X157258D02*X158728D01*
X157258D02*X156768Y176910D01*
Y175930D01*
X157258Y175440D02*X156768Y175930D01*
X157258Y175440D02*X158238D01*
X154612Y173480D02*X155592D01*
X155102Y177400D02*Y173480D01*
X154612Y177400D02*X155592D01*
X151476Y173480D02*X153436D01*
X152456Y177400D02*Y173480D01*
X146576D02*X148536D01*
Y175440D02*Y173480D01*
Y175440D02*X148046Y174950D01*
X147066D02*X148046D01*
X147066D02*X146576Y175440D01*
Y176910D02*Y175440D01*
X147066Y177400D02*X146576Y176910D01*
X147066Y177400D02*X148046D01*
X148536Y176910D02*X148046Y177400D01*
X137010D02*Y173480D01*
X135736D02*X135050Y174166D01*
Y176714D02*Y174166D01*
X135736Y177400D02*X135050Y176714D01*
X135736Y177400D02*X137500D01*
X135736Y173480D02*X137500D01*
X132894D02*X133874D01*
X133384Y177400D02*Y173480D01*
X132894Y177400D02*X133874D01*
X129758Y173480D02*X129268Y173970D01*
X129758Y173480D02*X131228D01*
X131718Y173970D02*X131228Y173480D01*
X131718Y176910D02*Y173970D01*
Y176910D02*X131228Y177400D01*
X129758D02*X131228D01*
X129758D02*X129268Y176910D01*
Y175930D01*
X129758Y175440D02*X129268Y175930D01*
X129758Y175440D02*X130738D01*
X127112Y173480D02*X128092D01*
X127602Y177400D02*Y173480D01*
X127112Y177400D02*X128092D01*
X123976Y173480D02*X125936D01*
X124956Y177400D02*Y173480D01*
X121036Y174264D02*X120252Y173480D01*
Y177400D02*Y173480D01*
X119566Y177400D02*X121036D01*
X118390Y176910D02*X117900Y177400D01*
X118390Y176910D02*Y176126D01*
X117704Y175440D01*
X117116D02*X117704D01*
X117116D02*X116430Y176126D01*
Y176910D02*Y176126D01*
X116920Y177400D02*X116430Y176910D01*
X116920Y177400D02*X117900D01*
X118390Y174754D02*X117704Y175440D01*
X118390Y174754D02*Y173970D01*
X117900Y173480D01*
X116920D02*X117900D01*
X116920D02*X116430Y173970D01*
Y174754D02*Y173970D01*
X117116Y175440D02*X116430Y174754D01*
X122500Y103480D02*X121520Y107400D01*
X120540Y103480D01*
X118384D02*X119364D01*
X118874Y107400D02*Y103480D01*
X118384Y107400D02*X119364D01*
X117208D02*Y103480D01*
X114758Y107400D01*
Y103480D01*
X133040Y93480D02*X132550Y93970D01*
X133040Y93480D02*X134510D01*
X135000Y93970D02*X134510Y93480D01*
X135000Y94950D02*Y93970D01*
Y94950D02*X134510Y95440D01*
X133040D02*X134510D01*
X133040D02*X132550Y95930D01*
Y96910D02*Y95930D01*
X133040Y97400D02*X132550Y96910D01*
X133040Y97400D02*X134510D01*
X135000Y96910D02*X134510Y97400D01*
X130884D02*Y93480D01*
X129414D02*X131374D01*
X129414D02*X128924Y93970D01*
Y94950D02*Y93970D01*
X129414Y95440D02*X128924Y94950D01*
X129414Y95440D02*X130884D01*
X126768Y93480D02*X127748D01*
X127258Y97400D02*Y93480D01*
X126768Y97400D02*X127748D01*
X123828D02*Y93480D01*
X122358Y95440D01*
X120888Y93480D01*
Y97400D02*Y93480D01*
X119712Y96910D02*Y93970D01*
X119222Y93480D01*
X118242D02*X119222D01*
X118242D02*X117752Y93970D01*
Y96910D02*Y93970D01*
X118242Y97400D02*X117752Y96910D01*
X118242Y97400D02*X119222D01*
X119712Y96910D02*X119222Y97400D01*
X114616Y93480D02*X114126Y93970D01*
X114616Y93480D02*X116086D01*
X116576Y93970D02*X116086Y93480D01*
X116576Y94950D02*Y93970D01*
Y94950D02*X116086Y95440D01*
X114616D02*X116086D01*
X114616D02*X114126Y95930D01*
Y96910D02*Y95930D01*
X114616Y97400D02*X114126Y96910D01*
X114616Y97400D02*X116086D01*
X116576Y96910D02*X116086Y97400D01*
X133040Y83480D02*X132550Y83970D01*
X133040Y83480D02*X134510D01*
X135000Y83970D02*X134510Y83480D01*
X135000Y84950D02*Y83970D01*
Y84950D02*X134510Y85440D01*
X133040D02*X134510D01*
X133040D02*X132550Y85930D01*
Y86910D02*Y85930D01*
X133040Y87400D02*X132550Y86910D01*
X133040Y87400D02*X134510D01*
X135000Y86910D02*X134510Y87400D01*
X130884D02*Y83480D01*
X129414D02*X131374D01*
X129414D02*X128924Y83970D01*
Y84950D02*Y83970D01*
X129414Y85440D02*X128924Y84950D01*
X129414Y85440D02*X130884D01*
X126768Y83480D02*X127748D01*
X127258Y87400D02*Y83480D01*
X126768Y87400D02*X127748D01*
X121868Y83480D02*X121378Y83970D01*
X121868Y83480D02*X123338D01*
X123828Y83970D02*X123338Y83480D01*
X123828Y84950D02*Y83970D01*
Y84950D02*X123338Y85440D01*
X121868D02*X123338D01*
X121868D02*X121378Y85930D01*
Y86910D02*Y85930D01*
X121868Y87400D02*X121378Y86910D01*
X121868Y87400D02*X123338D01*
X123828Y86910D02*X123338Y87400D01*
X118242D02*X119516D01*
X120202Y86714D02*X119516Y87400D01*
X120202Y86714D02*Y84166D01*
X119516Y83480D01*
X118242D02*X119516D01*
X117066Y87400D02*Y83480D01*
Y85440D02*X115106Y83480D01*
X117066Y85440D02*X115106Y87400D01*
X118040Y133480D02*X120000D01*
Y135440D02*Y133480D01*
Y135440D02*X119510Y134950D01*
X118530D02*X119510D01*
X118530D02*X118040Y135440D01*
Y136910D02*Y135440D01*
X118530Y137400D02*X118040Y136910D01*
X118530Y137400D02*X119510D01*
X120000Y136910D02*X119510Y137400D01*
X116864Y133480D02*X115884Y137400D01*
X114904Y133480D01*
X128040Y123480D02*X130000D01*
X128040D02*X127550Y123970D01*
Y124950D02*Y123970D01*
X128040Y125440D02*X127550Y124950D01*
X128040Y125440D02*X129510D01*
Y127400D02*Y123480D01*
X128726Y125440D02*X127550Y127400D01*
X124904Y125244D02*X126374D01*
X124414Y127400D02*X126374D01*
Y123480D01*
X124414D02*X126374D01*
X121278D02*X120788Y123970D01*
X121278Y123480D02*X122748D01*
X123238Y123970D02*X122748Y123480D01*
X123238Y124950D02*Y123970D01*
Y124950D02*X122748Y125440D01*
X121278D02*X122748D01*
X121278D02*X120788Y125930D01*
Y126910D02*Y125930D01*
X121278Y127400D02*X120788Y126910D01*
X121278Y127400D02*X122748D01*
X123238Y126910D02*X122748Y127400D01*
X118142Y125244D02*X119612D01*
X117652Y127400D02*X119612D01*
Y123480D01*
X117652D02*X119612D01*
X114516D02*X116476D01*
X115496Y127400D02*Y123480D01*
X123040Y113480D02*X122550Y113970D01*
X123040Y113480D02*X124510D01*
X125000Y113970D02*X124510Y113480D01*
X125000Y116910D02*Y113970D01*
Y116910D02*X124510Y117400D01*
X123040D02*X124510D01*
X123040D02*X122550Y116910D01*
Y115930D01*
X123040Y115440D02*X122550Y115930D01*
X123040Y115440D02*X124020D01*
X121374Y117400D02*Y113480D01*
X118924Y117400D01*
Y113480D01*
X117258Y117400D02*Y113480D01*
X115984D02*X115298Y114166D01*
Y116714D02*Y114166D01*
X115984Y117400D02*X115298Y116714D01*
X115984Y117400D02*X117748D01*
X115984Y113480D02*X117748D01*
X163040Y93480D02*X162550Y93970D01*
X163040Y93480D02*X164510D01*
X165000Y93970D02*X164510Y93480D01*
X165000Y94950D02*Y93970D01*
Y94950D02*X164510Y95440D01*
X163040D02*X164510D01*
X163040D02*X162550Y95930D01*
Y96910D02*Y95930D01*
X163040Y97400D02*X162550Y96910D01*
X163040Y97400D02*X164510D01*
X165000Y96910D02*X164510Y97400D01*
X160884D02*Y93480D01*
X159414D02*X161374D01*
X159414D02*X158924Y93970D01*
Y94950D02*Y93970D01*
X159414Y95440D02*X158924Y94950D01*
X159414Y95440D02*X160884D01*
X156768Y93480D02*X157748D01*
X157258Y97400D02*Y93480D01*
X156768Y97400D02*X157748D01*
X151868Y93480D02*X151378Y93970D01*
X151868Y93480D02*X153338D01*
X153828Y93970D02*X153338Y93480D01*
X153828Y94950D02*Y93970D01*
Y94950D02*X153338Y95440D01*
X151868D02*X153338D01*
X151868D02*X151378Y95930D01*
Y96910D02*Y95930D01*
X151868Y97400D02*X151378Y96910D01*
X151868Y97400D02*X153338D01*
X153828Y96910D02*X153338Y97400D01*
X148242Y93480D02*X147752Y93970D01*
X148242Y93480D02*X149712D01*
X150202Y93970D02*X149712Y93480D01*
X150202Y94950D02*Y93970D01*
Y94950D02*X149712Y95440D01*
X148242D02*X149712D01*
X148242D02*X147752Y95930D01*
Y96910D02*Y95930D01*
X148242Y97400D02*X147752Y96910D01*
X148242Y97400D02*X149712D01*
X150202Y96910D02*X149712Y97400D01*
X163040Y83480D02*X162550Y83970D01*
X163040Y83480D02*X164510D01*
X165000Y83970D02*X164510Y83480D01*
X165000Y84950D02*Y83970D01*
Y84950D02*X164510Y85440D01*
X163040D02*X164510D01*
X163040D02*X162550Y85930D01*
Y86910D02*Y85930D01*
X163040Y87400D02*X162550Y86910D01*
X163040Y87400D02*X164510D01*
X165000Y86910D02*X164510Y87400D01*
X160884D02*Y83480D01*
X159414D02*X161374D01*
X159414D02*X158924Y83970D01*
Y84950D02*Y83970D01*
X159414Y85440D02*X158924Y84950D01*
X159414Y85440D02*X160884D01*
X156768Y83480D02*X157748D01*
X157258Y87400D02*Y83480D01*
X156768Y87400D02*X157748D01*
X153828D02*Y83480D01*
X152358Y85440D01*
X150888Y83480D01*
Y87400D02*Y83480D01*
X149712Y86910D02*Y83970D01*
X149222Y83480D01*
X148242D02*X149222D01*
X148242D02*X147752Y83970D01*
Y86910D02*Y83970D01*
X148242Y87400D02*X147752Y86910D01*
X148242Y87400D02*X149222D01*
X149712Y86910D02*X149222Y87400D01*
X144616Y83480D02*X144126Y83970D01*
X144616Y83480D02*X146086D01*
X146576Y83970D02*X146086Y83480D01*
X146576Y84950D02*Y83970D01*
Y84950D02*X146086Y85440D01*
X144616D02*X146086D01*
X144616D02*X144126Y85930D01*
Y86910D02*Y85930D01*
X144616Y87400D02*X144126Y86910D01*
X144616Y87400D02*X146086D01*
X146576Y86910D02*X146086Y87400D01*
X141970Y83480D02*X142950D01*
X142460Y87400D02*Y83480D01*
X141970Y87400D02*X142950D01*
X163040Y103480D02*X165000D01*
X164020Y107400D02*Y103480D01*
X161864Y107400D02*X159414Y103480D01*
X161864D02*X159414Y107400D01*
X163040Y113480D02*X165000D01*
X163040D02*X162550Y113970D01*
Y114950D02*Y113970D01*
X163040Y115440D02*X162550Y114950D01*
X163040Y115440D02*X164510D01*
Y117400D02*Y113480D01*
X163726Y115440D02*X162550Y117400D01*
X161374D02*X158924Y113480D01*
X161374D02*X158924Y117400D01*
X163040Y123480D02*X165000D01*
X163040D02*X162550Y123970D01*
Y124950D02*Y123970D01*
X163040Y125440D02*X162550Y124950D01*
X163040Y125440D02*X164510D01*
Y127400D02*Y123480D01*
X163726Y125440D02*X162550Y127400D01*
X159904Y125244D02*X161374D01*
X159414Y127400D02*X161374D01*
Y123480D01*
X159414D02*X161374D01*
X156278D02*X155788Y123970D01*
X156278Y123480D02*X157748D01*
X158238Y123970D02*X157748Y123480D01*
X158238Y124950D02*Y123970D01*
Y124950D02*X157748Y125440D01*
X156278D02*X157748D01*
X156278D02*X155788Y125930D01*
Y126910D02*Y125930D01*
X156278Y127400D02*X155788Y126910D01*
X156278Y127400D02*X157748D01*
X158238Y126910D02*X157748Y127400D01*
X153142Y125244D02*X154612D01*
X152652Y127400D02*X154612D01*
Y123480D01*
X152652D02*X154612D01*
X149516D02*X151476D01*
X150496Y127400D02*Y123480D01*
X200540Y83480D02*X200050Y83970D01*
X200540Y83480D02*X202010D01*
X202500Y83970D02*X202010Y83480D01*
X202500Y86910D02*Y83970D01*
Y86910D02*X202010Y87400D01*
X200540D02*X202010D01*
X200540D02*X200050Y86910D01*
Y85930D01*
X200540Y85440D02*X200050Y85930D01*
X200540Y85440D02*X201520D01*
X198874Y87400D02*Y83480D01*
X196424Y87400D01*
Y83480D01*
X194758Y87400D02*Y83480D01*
X193484D02*X192798Y84166D01*
Y86714D02*Y84166D01*
X193484Y87400D02*X192798Y86714D01*
X193484Y87400D02*X195248D01*
X193484Y83480D02*X195248D01*
X202500Y93480D02*X201520Y97400D01*
X200540Y93480D01*
X197404Y97400D02*X198678D01*
X199364Y96714D02*X198678Y97400D01*
X199364Y96714D02*Y94166D01*
X198678Y93480D01*
X197404D02*X198678D01*
X194268Y97400D02*X195542D01*
X196228Y96714D02*X195542Y97400D01*
X196228Y96714D02*Y94166D01*
X195542Y93480D01*
X194268D02*X195542D01*
X200540Y103480D02*X200050Y103970D01*
X200540Y103480D02*X202010D01*
X202500Y103970D02*X202010Y103480D01*
X202500Y104950D02*Y103970D01*
Y104950D02*X202010Y105440D01*
X200540D02*X202010D01*
X200540D02*X200050Y105930D01*
Y106910D02*Y105930D01*
X200540Y107400D02*X200050Y106910D01*
X200540Y107400D02*X202010D01*
X202500Y106910D02*X202010Y107400D01*
X198384D02*Y103480D01*
X197110D02*X196424Y104166D01*
Y106714D02*Y104166D01*
X197110Y107400D02*X196424Y106714D01*
X197110Y107400D02*X198874D01*
X197110Y103480D02*X198874D01*
X195248Y107400D02*Y104460D01*
X194562Y103480D01*
X193484D02*X194562D01*
X193484D02*X192798Y104460D01*
Y107400D02*Y104460D01*
Y105440D02*X195248D01*
X200540Y113480D02*X200050Y113970D01*
X200540Y113480D02*X202010D01*
X202500Y113970D02*X202010Y113480D01*
X202500Y114950D02*Y113970D01*
Y114950D02*X202010Y115440D01*
X200540D02*X202010D01*
X200540D02*X200050Y115930D01*
Y116910D02*Y115930D01*
X200540Y117400D02*X200050Y116910D01*
X200540Y117400D02*X202010D01*
X202500Y116910D02*X202010Y117400D01*
X198384D02*Y113480D01*
X197110D02*X196424Y114166D01*
Y116714D02*Y114166D01*
X197110Y117400D02*X196424Y116714D01*
X197110Y117400D02*X198874D01*
X197110Y113480D02*X198874D01*
X195248Y117400D02*Y113480D01*
X193288Y117400D02*X195248D01*
X202500Y126910D02*Y123480D01*
Y126910D02*X202010Y127400D01*
X201030D02*X202010D01*
X201030D02*X200540Y126910D01*
Y123480D01*
X198874Y127400D02*Y123480D01*
X197404D02*X199364D01*
X197404D02*X196914Y123970D01*
Y124950D02*Y123970D01*
X197404Y125440D02*X196914Y124950D01*
X197404Y125440D02*X198874D01*
X202010Y137400D02*Y133480D01*
X200736D02*X200050Y134166D01*
Y136714D02*Y134166D01*
X200736Y137400D02*X200050Y136714D01*
X200736Y137400D02*X202500D01*
X200736Y133480D02*X202500D01*
X198874Y136910D02*Y133970D01*
X198384Y133480D01*
X197404D02*X198384D01*
X197404D02*X196914Y133970D01*
Y136910D02*Y133970D01*
X197404Y137400D02*X196914Y136910D01*
X197404Y137400D02*X198384D01*
X198874Y136910D02*X198384Y137400D01*
X195738Y135440D02*Y133480D01*
Y135440D02*X195248Y137400D01*
X194268Y135440D01*
X193288Y137400D01*
X192798Y135440D01*
Y133480D01*
X191622Y137400D02*Y133480D01*
X189172Y137400D01*
Y133480D01*
X202500Y147400D02*Y143480D01*
X200540Y147400D02*X202500D01*
X197894Y145244D02*X199364D01*
X197404Y147400D02*X199364D01*
Y143480D01*
X197404D02*X199364D01*
X196228Y147400D02*Y143480D01*
X194268D02*X196228D01*
X194758Y145244D02*X196228D01*
X191132Y143480D02*X193092D01*
X192112Y147400D02*Y143480D01*
X200540Y153480D02*X202500D01*
X200540D02*X200050Y153970D01*
Y154950D02*Y153970D01*
X200540Y155440D02*X200050Y154950D01*
X200540Y155440D02*X202010D01*
Y157400D02*Y153480D01*
X201226Y155440D02*X200050Y157400D01*
X197894Y153480D02*X198874D01*
X198384Y157400D02*Y153480D01*
X197894Y157400D02*X198874D01*
X194758Y153480D02*X194268Y153970D01*
X194758Y153480D02*X196228D01*
X196718Y153970D02*X196228Y153480D01*
X196718Y156910D02*Y153970D01*
Y156910D02*X196228Y157400D01*
X194758D02*X196228D01*
X194758D02*X194268Y156910D01*
Y155930D01*
X194758Y155440D02*X194268Y155930D01*
X194758Y155440D02*X195738D01*
X193092Y157400D02*Y153480D01*
X190642Y157400D02*Y153480D01*
Y155440D02*X193092D01*
X187506Y153480D02*X189466D01*
X188486Y157400D02*Y153480D01*
X200540Y163480D02*X200050Y163970D01*
X200540Y163480D02*X202010D01*
X202500Y163970D02*X202010Y163480D01*
X202500Y164950D02*Y163970D01*
Y164950D02*X202010Y165440D01*
X200540D02*X202010D01*
X200540D02*X200050Y165930D01*
Y166910D02*Y165930D01*
X200540Y167400D02*X200050Y166910D01*
X200540Y167400D02*X202010D01*
X202500Y166910D02*X202010Y167400D01*
X197404Y165244D02*X198874D01*
X196914Y167400D02*X198874D01*
Y163480D01*
X196914D02*X198874D01*
X195738Y167400D02*Y163480D01*
X193778Y167400D02*X195738D01*
X200540Y177400D02*X202500D01*
X200540D02*X200050Y176910D01*
Y175734D01*
X200540Y175244D02*X200050Y175734D01*
X200540Y175244D02*X202010D01*
Y177400D02*Y173480D01*
X200540D02*X202500D01*
X200540D02*X200050Y173970D01*
Y174754D02*Y173970D01*
X200540Y175244D02*X200050Y174754D01*
X197404Y175244D02*X198874D01*
X196914Y177400D02*X198874D01*
Y173480D01*
X196914D02*X198874D01*
X194268Y175244D02*X195738D01*
X193778Y177400D02*X195738D01*
Y173480D01*
X193778D02*X195738D01*
X192112Y177400D02*Y173480D01*
X190642D02*X192602D01*
X190642D02*X190152Y173970D01*
Y174950D02*Y173970D01*
X190642Y175440D02*X190152Y174950D01*
X190642Y175440D02*X192112D01*
X200540Y183480D02*X200050Y183970D01*
X200540Y183480D02*X202010D01*
X202500Y183970D02*X202010Y183480D01*
X202500Y186910D02*Y183970D01*
Y186910D02*X202010Y187400D01*
X200540D02*X202010D01*
X200540D02*X200050Y186910D01*
Y185930D01*
X200540Y185440D02*X200050Y185930D01*
X200540Y185440D02*X201520D01*
X198874Y187400D02*Y183480D01*
X196424Y187400D01*
Y183480D01*
X194758Y187400D02*Y183480D01*
X193484D02*X192798Y184166D01*
Y186714D02*Y184166D01*
X193484Y187400D02*X192798Y186714D01*
X193484Y187400D02*X195248D01*
X193484Y183480D02*X195248D01*
X202500Y197400D02*Y193480D01*
X200050Y197400D02*Y193480D01*
Y195440D02*X202500D01*
X197404Y195244D02*X198874D01*
X196914Y197400D02*X198874D01*
Y193480D01*
X196914D02*X198874D01*
X195738Y197400D02*Y194460D01*
X195052Y193480D01*
X193974D02*X195052D01*
X193974D02*X193288Y194460D01*
Y197400D02*Y194460D01*
Y195440D02*X195738D01*
X190152Y193480D02*X192112D01*
X191132Y197400D02*Y193480D01*
X202500Y207400D02*Y203480D01*
X200540D02*X202500D01*
X201030Y205244D02*X202500D01*
X199364Y207400D02*Y204460D01*
X198678Y203480D01*
X197600D02*X198678D01*
X197600D02*X196914Y204460D01*
Y207400D02*Y204460D01*
Y205440D02*X199364D01*
X195738Y207400D02*Y203480D01*
X193288Y207400D01*
Y203480D01*
X50100Y120000D02*X53040D01*
X54020Y119314D01*
Y118236D01*
X53040Y117550D01*
X50100D02*X53040D01*
X52060Y120000D02*Y117550D01*
X50590Y116374D02*X50100Y115884D01*
X50590Y116374D02*X53530D01*
X54020Y115884D01*
Y114904D01*
X53530Y114414D01*
X50590D02*X53530D01*
X50100Y114904D02*X50590Y114414D01*
X50100Y115884D02*Y114904D01*
X51080Y116374D02*X53040Y114414D01*
X40100Y120000D02*X43040D01*
X44020Y119314D01*
Y118236D01*
X43040Y117550D01*
X40100D02*X43040D01*
X42060Y120000D02*Y117550D01*
X43236Y116374D02*X44020Y115590D01*
X40100D02*X44020D01*
X40100Y116374D02*Y114904D01*
X30100Y120000D02*X33040D01*
X34020Y119314D01*
Y118236D01*
X33040Y117550D01*
X30100D02*X33040D01*
X32060Y120000D02*Y117550D01*
X33530Y116374D02*X34020Y115884D01*
Y114414D01*
X33530Y113924D01*
X32550D02*X33530D01*
X30100Y116374D02*X32550Y113924D01*
X30100Y116374D02*Y113924D01*
X20100Y120000D02*X23040D01*
X24020Y119314D01*
Y118236D01*
X23040Y117550D01*
X20100D02*X23040D01*
X22060Y120000D02*Y117550D01*
X23530Y116374D02*X24020Y115884D01*
Y114904D01*
X23530Y114414D01*
X20100Y114904D02*X20590Y114414D01*
X20100Y115884D02*Y114904D01*
X20590Y116374D02*X20100Y115884D01*
X22256D02*Y114904D01*
X22746Y114414D02*X23530D01*
X20590D02*X21766D01*
X22256Y114904D01*
X22746Y114414D02*X22256Y114904D01*
X37500Y147400D02*Y143480D01*
X36030Y145440D01*
X34560Y143480D01*
Y147400D02*Y143480D01*
X33384Y147400D02*Y144460D01*
X32698Y143480D01*
X31620D02*X32698D01*
X31620D02*X30934Y144460D01*
Y147400D02*Y144460D01*
Y145440D02*X33384D01*
X29758Y147400D02*X27308Y143480D01*
X29758D02*X27308Y147400D01*
X24368Y143970D02*X23878Y143480D01*
X22898D02*X23878D01*
X22898D02*X22408Y143970D01*
X22898Y147400D02*X22408Y146910D01*
X22898Y147400D02*X23878D01*
X24368Y146910D02*X23878Y147400D01*
X22898Y145244D02*X23878D01*
X22408Y144754D02*Y143970D01*
Y146910D02*Y145734D01*
X22898Y145244D01*
X22408Y144754D02*X22898Y145244D01*
X21232Y144264D02*X20448Y143480D01*
Y147400D02*Y143480D01*
X19762Y147400D02*X21232D01*
X18586Y146910D02*X18096Y147400D01*
X18586Y146910D02*Y146126D01*
X17900Y145440D01*
X17312D02*X17900D01*
X17312D02*X16626Y146126D01*
Y146910D02*Y146126D01*
X17116Y147400D02*X16626Y146910D01*
X17116Y147400D02*X18096D01*
X18586Y144754D02*X17900Y145440D01*
X18586Y144754D02*Y143970D01*
X18096Y143480D01*
X17116D02*X18096D01*
X17116D02*X16626Y143970D01*
Y144754D02*Y143970D01*
X17312Y145440D02*X16626Y144754D01*
X13490Y143480D02*X15450D01*
Y145440D02*Y143480D01*
Y145440D02*X14960Y144950D01*
X13980D02*X14960D01*
X13980D02*X13490Y145440D01*
Y146910D02*Y145440D01*
X13980Y147400D02*X13490Y146910D01*
X13980Y147400D02*X14960D01*
X15450Y146910D02*X14960Y147400D01*
X12314Y146910D02*X11824Y147400D01*
X12314Y146910D02*Y143970D01*
X11824Y143480D01*
X10844D02*X11824D01*
X10844D02*X10354Y143970D01*
Y146910D02*Y143970D01*
X10844Y147400D02*X10354Y146910D01*
X10844Y147400D02*X11824D01*
X12314Y146420D02*X10354Y144460D01*
X48040Y253480D02*X47550Y253970D01*
X48040Y253480D02*X49510D01*
X50000Y253970D02*X49510Y253480D01*
X50000Y256910D02*Y253970D01*
Y256910D02*X49510Y257400D01*
X48040D02*X49510D01*
X48040D02*X47550Y256910D01*
Y255930D01*
X48040Y255440D02*X47550Y255930D01*
X48040Y255440D02*X49020D01*
X46374Y257400D02*Y253480D01*
X43924Y257400D01*
Y253480D01*
X42258Y257400D02*Y253480D01*
X40984D02*X40298Y254166D01*
Y256714D02*Y254166D01*
X40984Y257400D02*X40298Y256714D01*
X40984Y257400D02*X42748D01*
X40984Y253480D02*X42748D01*
X10100Y209510D02*X14020D01*
Y208236D02*X13334Y207550D01*
X10786D02*X13334D01*
X10100Y208236D02*X10786Y207550D01*
X10100Y210000D02*Y208236D01*
X14020Y210000D02*Y208236D01*
X10100Y206374D02*X13040D01*
X14020Y205688D01*
Y204610D01*
X13040Y203924D01*
X10100D02*X13040D01*
X12060Y206374D02*Y203924D01*
X14020Y202748D02*Y200788D01*
X10100Y201768D02*X14020D01*
X10100Y199612D02*X13040D01*
X14020Y198926D01*
Y197848D01*
X13040Y197162D01*
X10100D02*X13040D01*
X12060Y199612D02*Y197162D01*
X20100Y210000D02*X23040D01*
X24020Y209314D01*
Y208236D01*
X23040Y207550D01*
X20100D02*X23040D01*
X22060Y210000D02*Y207550D01*
X23530Y206374D02*X24020Y205884D01*
Y204904D01*
X23530Y204414D01*
X20100Y204904D02*X20590Y204414D01*
X20100Y205884D02*Y204904D01*
X20590Y206374D02*X20100Y205884D01*
X22256D02*Y204904D01*
X22746Y204414D02*X23530D01*
X20590D02*X21766D01*
X22256Y204904D01*
X22746Y204414D02*X22256Y204904D01*
X30100Y210000D02*X33040D01*
X34020Y209314D01*
Y208236D01*
X33040Y207550D01*
X30100D02*X33040D01*
X32060Y210000D02*Y207550D01*
X33530Y206374D02*X34020Y205884D01*
Y204414D01*
X33530Y203924D01*
X32550D02*X33530D01*
X30100Y206374D02*X32550Y203924D01*
X30100Y206374D02*Y203924D01*
X40100Y210000D02*X43040D01*
X44020Y209314D01*
Y208236D01*
X43040Y207550D01*
X40100D02*X43040D01*
X42060Y210000D02*Y207550D01*
X43236Y206374D02*X44020Y205590D01*
X40100D02*X44020D01*
X40100Y206374D02*Y204904D01*
X50100Y210000D02*X53040D01*
X54020Y209314D01*
Y208236D01*
X53040Y207550D01*
X50100D02*X53040D01*
X52060Y210000D02*Y207550D01*
X50590Y206374D02*X50100Y205884D01*
X50590Y206374D02*X53530D01*
X54020Y205884D01*
Y204904D01*
X53530Y204414D01*
X50590D02*X53530D01*
X50100Y204904D02*X50590Y204414D01*
X50100Y205884D02*Y204904D01*
X51080Y206374D02*X53040Y204414D01*
X63530Y210000D02*X64020Y209510D01*
Y208530D01*
X63530Y208040D01*
X60100Y208530D02*X60590Y208040D01*
X60100Y209510D02*Y208530D01*
X60590Y210000D02*X60100Y209510D01*
X62256D02*Y208530D01*
X62746Y208040D02*X63530D01*
X60590D02*X61766D01*
X62256Y208530D01*
X62746Y208040D02*X62256Y208530D01*
X64020Y206864D02*X60100Y205884D01*
X64020Y204904D01*
X63530Y203728D02*X64020Y203238D01*
Y202258D01*
X63530Y201768D01*
X60100Y202258D02*X60590Y201768D01*
X60100Y203238D02*Y202258D01*
X60590Y203728D02*X60100Y203238D01*
X62256D02*Y202258D01*
X62746Y201768D02*X63530D01*
X60590D02*X61766D01*
X62256Y202258D01*
X62746Y201768D02*X62256Y202258D01*
X74020Y210000D02*X70100Y209020D01*
X74020Y208040D01*
Y206864D02*Y205884D01*
X70100Y206374D02*X74020D01*
X70100Y206864D02*Y205884D01*
Y204708D02*X74020D01*
X70100Y202258D01*
X74020D01*
X84020Y208040D02*X83530Y207550D01*
X84020Y209510D02*Y208040D01*
X83530Y210000D02*X84020Y209510D01*
X80590Y210000D02*X83530D01*
X80590D02*X80100Y209510D01*
Y208040D01*
X80590Y207550D01*
X81570D01*
X82060Y208040D02*X81570Y207550D01*
X82060Y209020D02*Y208040D01*
X80100Y206374D02*X84020D01*
X80100Y203924D01*
X84020D01*
X80100Y202258D02*X84020D01*
Y200984D02*X83334Y200298D01*
X80786D02*X83334D01*
X80100Y200984D02*X80786Y200298D01*
X80100Y202748D02*Y200984D01*
X84020Y202748D02*Y200984D01*
Y118040D02*X83530Y117550D01*
X84020Y119510D02*Y118040D01*
X83530Y120000D02*X84020Y119510D01*
X80590Y120000D02*X83530D01*
X80590D02*X80100Y119510D01*
Y118040D01*
X80590Y117550D01*
X81570D01*
X82060Y118040D02*X81570Y117550D01*
X82060Y119020D02*Y118040D01*
X80100Y116374D02*X84020D01*
X80100Y113924D01*
X84020D01*
X80100Y112258D02*X84020D01*
Y110984D02*X83334Y110298D01*
X80786D02*X83334D01*
X80100Y110984D02*X80786Y110298D01*
X80100Y112748D02*Y110984D01*
X84020Y112748D02*Y110984D01*
X74020Y120000D02*X70100Y119020D01*
X74020Y118040D01*
Y116864D02*Y115884D01*
X70100Y116374D02*X74020D01*
X70100Y116864D02*Y115884D01*
Y114708D02*X74020D01*
X70100Y112258D01*
X74020D01*
X63530Y120000D02*X64020Y119510D01*
Y118530D01*
X63530Y118040D01*
X60100Y118530D02*X60590Y118040D01*
X60100Y119510D02*Y118530D01*
X60590Y120000D02*X60100Y119510D01*
X62256D02*Y118530D01*
X62746Y118040D02*X63530D01*
X60590D02*X61766D01*
X62256Y118530D01*
X62746Y118040D02*X62256Y118530D01*
X64020Y116864D02*X60100Y115884D01*
X64020Y114904D01*
X63530Y113728D02*X64020Y113238D01*
Y112258D01*
X63530Y111768D01*
X60100Y112258D02*X60590Y111768D01*
X60100Y113238D02*Y112258D01*
X60590Y113728D02*X60100Y113238D01*
X62256D02*Y112258D01*
X62746Y111768D02*X63530D01*
X60590D02*X61766D01*
X62256Y112258D01*
X62746Y111768D02*X62256Y112258D01*
X137010Y207400D02*Y203480D01*
X135736D02*X135050Y204166D01*
Y206714D02*Y204166D01*
X135736Y207400D02*X135050Y206714D01*
X135736Y207400D02*X137500D01*
X135736Y203480D02*X137500D01*
X132894D02*X133874D01*
X133384Y207400D02*Y203480D01*
X132894Y207400D02*X133874D01*
X129758Y203480D02*X129268Y203970D01*
X129758Y203480D02*X131228D01*
X131718Y203970D02*X131228Y203480D01*
X131718Y206910D02*Y203970D01*
Y206910D02*X131228Y207400D01*
X129758D02*X131228D01*
X129758D02*X129268Y206910D01*
Y205930D01*
X129758Y205440D02*X129268Y205930D01*
X129758Y205440D02*X130738D01*
X127112Y203480D02*X128092D01*
X127602Y207400D02*Y203480D01*
X127112Y207400D02*X128092D01*
X123976Y203480D02*X125936D01*
X124956Y207400D02*Y203480D01*
X121036Y204264D02*X120252Y203480D01*
Y207400D02*Y203480D01*
X119566Y207400D02*X121036D01*
X116430Y203480D02*X118390D01*
Y205440D02*Y203480D01*
Y205440D02*X117900Y204950D01*
X116920D02*X117900D01*
X116920D02*X116430Y205440D01*
Y206910D02*Y205440D01*
X116920Y207400D02*X116430Y206910D01*
X116920Y207400D02*X117900D01*
X118390Y206910D02*X117900Y207400D01*
X164510Y197400D02*Y193480D01*
X163236D02*X162550Y194166D01*
Y196714D02*Y194166D01*
X163236Y197400D02*X162550Y196714D01*
X163236Y197400D02*X165000D01*
X163236Y193480D02*X165000D01*
X160394D02*X161374D01*
X160884Y197400D02*Y193480D01*
X160394Y197400D02*X161374D01*
X157258Y193480D02*X156768Y193970D01*
X157258Y193480D02*X158728D01*
X159218Y193970D02*X158728Y193480D01*
X159218Y196910D02*Y193970D01*
Y196910D02*X158728Y197400D01*
X157258D02*X158728D01*
X157258D02*X156768Y196910D01*
Y195930D01*
X157258Y195440D02*X156768Y195930D01*
X157258Y195440D02*X158238D01*
X154612Y193480D02*X155592D01*
X155102Y197400D02*Y193480D01*
X154612Y197400D02*X155592D01*
X151476Y193480D02*X153436D01*
X152456Y197400D02*Y193480D01*
X148046Y197400D02*X146086Y193480D01*
X148536D01*
X164510Y207400D02*Y203480D01*
X163236D02*X162550Y204166D01*
Y206714D02*Y204166D01*
X163236Y207400D02*X162550Y206714D01*
X163236Y207400D02*X165000D01*
X163236Y203480D02*X165000D01*
X160394D02*X161374D01*
X160884Y207400D02*Y203480D01*
X160394Y207400D02*X161374D01*
X157258Y203480D02*X156768Y203970D01*
X157258Y203480D02*X158728D01*
X159218Y203970D02*X158728Y203480D01*
X159218Y206910D02*Y203970D01*
Y206910D02*X158728Y207400D01*
X157258D02*X158728D01*
X157258D02*X156768Y206910D01*
Y205930D01*
X157258Y205440D02*X156768Y205930D01*
X157258Y205440D02*X158238D01*
X154612Y203480D02*X155592D01*
X155102Y207400D02*Y203480D01*
X154612Y207400D02*X155592D01*
X151476Y203480D02*X153436D01*
X152456Y207400D02*Y203480D01*
X148536Y206910D02*X148046Y207400D01*
X148536Y206910D02*Y206126D01*
X147850Y205440D01*
X147262D02*X147850D01*
X147262D02*X146576Y206126D01*
Y206910D02*Y206126D01*
X147066Y207400D02*X146576Y206910D01*
X147066Y207400D02*X148046D01*
X148536Y204754D02*X147850Y205440D01*
X148536Y204754D02*Y203970D01*
X148046Y203480D01*
X147066D02*X148046D01*
X147066D02*X146576Y203970D01*
Y204754D02*Y203970D01*
X147262Y205440D02*X146576Y204754D01*
X137010Y247400D02*Y243480D01*
X135736D02*X135050Y244166D01*
Y246714D02*Y244166D01*
X135736Y247400D02*X135050Y246714D01*
X135736Y247400D02*X137500D01*
X135736Y243480D02*X137500D01*
X132894D02*X133874D01*
X133384Y247400D02*Y243480D01*
X132894Y247400D02*X133874D01*
X129758Y243480D02*X129268Y243970D01*
X129758Y243480D02*X131228D01*
X131718Y243970D02*X131228Y243480D01*
X131718Y246910D02*Y243970D01*
Y246910D02*X131228Y247400D01*
X129758D02*X131228D01*
X129758D02*X129268Y246910D01*
Y245930D01*
X129758Y245440D02*X129268Y245930D01*
X129758Y245440D02*X130738D01*
X127112Y243480D02*X128092D01*
X127602Y247400D02*Y243480D01*
X127112Y247400D02*X128092D01*
X123976Y243480D02*X125936D01*
X124956Y247400D02*Y243480D01*
X121036Y244264D02*X120252Y243480D01*
Y247400D02*Y243480D01*
X119566Y247400D02*X121036D01*
X118390Y243970D02*X117900Y243480D01*
X116920D02*X117900D01*
X116920D02*X116430Y243970D01*
X116920Y247400D02*X116430Y246910D01*
X116920Y247400D02*X117900D01*
X118390Y246910D02*X117900Y247400D01*
X116920Y245244D02*X117900D01*
X116430Y244754D02*Y243970D01*
Y246910D02*Y245734D01*
X116920Y245244D01*
X116430Y244754D02*X116920Y245244D01*
X125000Y233970D02*X124510Y233480D01*
X123530D02*X124510D01*
X123530D02*X123040Y233970D01*
X123530Y237400D02*X123040Y236910D01*
X123530Y237400D02*X124510D01*
X125000Y236910D02*X124510Y237400D01*
X123530Y235244D02*X124510D01*
X123040Y234754D02*Y233970D01*
Y236910D02*Y235734D01*
X123530Y235244D01*
X123040Y234754D02*X123530Y235244D01*
X121374Y237400D02*X121864D01*
X120198Y233970D02*X119708Y233480D01*
X118728D02*X119708D01*
X118728D02*X118238Y233970D01*
X118728Y237400D02*X118238Y236910D01*
X118728Y237400D02*X119708D01*
X120198Y236910D02*X119708Y237400D01*
X118728Y235244D02*X119708D01*
X118238Y234754D02*Y233970D01*
Y236910D02*Y235734D01*
X118728Y235244D01*
X118238Y234754D02*X118728Y235244D01*
X117062Y233480D02*X116082Y237400D01*
X115102Y233480D01*
X164510Y227400D02*Y223480D01*
X163236D02*X162550Y224166D01*
Y226714D02*Y224166D01*
X163236Y227400D02*X162550Y226714D01*
X163236Y227400D02*X165000D01*
X163236Y223480D02*X165000D01*
X160394D02*X161374D01*
X160884Y227400D02*Y223480D01*
X160394Y227400D02*X161374D01*
X157258Y223480D02*X156768Y223970D01*
X157258Y223480D02*X158728D01*
X159218Y223970D02*X158728Y223480D01*
X159218Y226910D02*Y223970D01*
Y226910D02*X158728Y227400D01*
X157258D02*X158728D01*
X157258D02*X156768Y226910D01*
Y225930D01*
X157258Y225440D02*X156768Y225930D01*
X157258Y225440D02*X158238D01*
X154612Y223480D02*X155592D01*
X155102Y227400D02*Y223480D01*
X154612Y227400D02*X155592D01*
X151476Y223480D02*X153436D01*
X152456Y227400D02*Y223480D01*
X148536Y224264D02*X147752Y223480D01*
Y227400D02*Y223480D01*
X147066Y227400D02*X148536D01*
X145890Y226910D02*X145400Y227400D01*
X145890Y226910D02*Y223970D01*
X145400Y223480D01*
X144420D02*X145400D01*
X144420D02*X143930Y223970D01*
Y226910D02*Y223970D01*
X144420Y227400D02*X143930Y226910D01*
X144420Y227400D02*X145400D01*
X145890Y226420D02*X143930Y224460D01*
X164510Y237400D02*Y233480D01*
X163236D02*X162550Y234166D01*
Y236714D02*Y234166D01*
X163236Y237400D02*X162550Y236714D01*
X163236Y237400D02*X165000D01*
X163236Y233480D02*X165000D01*
X160394D02*X161374D01*
X160884Y237400D02*Y233480D01*
X160394Y237400D02*X161374D01*
X157258Y233480D02*X156768Y233970D01*
X157258Y233480D02*X158728D01*
X159218Y233970D02*X158728Y233480D01*
X159218Y236910D02*Y233970D01*
Y236910D02*X158728Y237400D01*
X157258D02*X158728D01*
X157258D02*X156768Y236910D01*
Y235930D01*
X157258Y235440D02*X156768Y235930D01*
X157258Y235440D02*X158238D01*
X154612Y233480D02*X155592D01*
X155102Y237400D02*Y233480D01*
X154612Y237400D02*X155592D01*
X151476Y233480D02*X153436D01*
X152456Y237400D02*Y233480D01*
X148536Y234264D02*X147752Y233480D01*
Y237400D02*Y233480D01*
X147066Y237400D02*X148536D01*
X145890Y234264D02*X145106Y233480D01*
Y237400D02*Y233480D01*
X144420Y237400D02*X145890D01*
X164510Y217400D02*Y213480D01*
X163236D02*X162550Y214166D01*
Y216714D02*Y214166D01*
X163236Y217400D02*X162550Y216714D01*
X163236Y217400D02*X165000D01*
X163236Y213480D02*X165000D01*
X160394D02*X161374D01*
X160884Y217400D02*Y213480D01*
X160394Y217400D02*X161374D01*
X157258Y213480D02*X156768Y213970D01*
X157258Y213480D02*X158728D01*
X159218Y213970D02*X158728Y213480D01*
X159218Y216910D02*Y213970D01*
Y216910D02*X158728Y217400D01*
X157258D02*X158728D01*
X157258D02*X156768Y216910D01*
Y215930D01*
X157258Y215440D02*X156768Y215930D01*
X157258Y215440D02*X158238D01*
X154612Y213480D02*X155592D01*
X155102Y217400D02*Y213480D01*
X154612Y217400D02*X155592D01*
X151476Y213480D02*X153436D01*
X152456Y217400D02*Y213480D01*
X148046Y217400D02*X146576Y215440D01*
Y213970D01*
X147066Y213480D02*X146576Y213970D01*
X147066Y213480D02*X148046D01*
X148536Y213970D02*X148046Y213480D01*
X148536Y214950D02*Y213970D01*
Y214950D02*X148046Y215440D01*
X146576D02*X148046D01*
X137010Y217400D02*Y213480D01*
X135736D02*X135050Y214166D01*
Y216714D02*Y214166D01*
X135736Y217400D02*X135050Y216714D01*
X135736Y217400D02*X137500D01*
X135736Y213480D02*X137500D01*
X132894D02*X133874D01*
X133384Y217400D02*Y213480D01*
X132894Y217400D02*X133874D01*
X129758Y213480D02*X129268Y213970D01*
X129758Y213480D02*X131228D01*
X131718Y213970D02*X131228Y213480D01*
X131718Y216910D02*Y213970D01*
Y216910D02*X131228Y217400D01*
X129758D02*X131228D01*
X129758D02*X129268Y216910D01*
Y215930D01*
X129758Y215440D02*X129268Y215930D01*
X129758Y215440D02*X130738D01*
X127112Y213480D02*X128092D01*
X127602Y217400D02*Y213480D01*
X127112Y217400D02*X128092D01*
X123976Y213480D02*X125936D01*
X124956Y217400D02*Y213480D01*
X121036Y214264D02*X120252Y213480D01*
Y217400D02*Y213480D01*
X119566Y217400D02*X121036D01*
X118390Y215930D02*X116430Y213480D01*
X115940Y215930D02*X118390D01*
X116430Y217400D02*Y213480D01*
X164510Y247400D02*Y243480D01*
X163236D02*X162550Y244166D01*
Y246714D02*Y244166D01*
X163236Y247400D02*X162550Y246714D01*
X163236Y247400D02*X165000D01*
X163236Y243480D02*X165000D01*
X160394D02*X161374D01*
X160884Y247400D02*Y243480D01*
X160394Y247400D02*X161374D01*
X157258Y243480D02*X156768Y243970D01*
X157258Y243480D02*X158728D01*
X159218Y243970D02*X158728Y243480D01*
X159218Y246910D02*Y243970D01*
Y246910D02*X158728Y247400D01*
X157258D02*X158728D01*
X157258D02*X156768Y246910D01*
Y245930D01*
X157258Y245440D02*X156768Y245930D01*
X157258Y245440D02*X158238D01*
X154612Y243480D02*X155592D01*
X155102Y247400D02*Y243480D01*
X154612Y247400D02*X155592D01*
X151476Y243480D02*X153436D01*
X152456Y247400D02*Y243480D01*
X148536Y244264D02*X147752Y243480D01*
Y247400D02*Y243480D01*
X147066Y247400D02*X148536D01*
X145890Y243970D02*X145400Y243480D01*
X143930D02*X145400D01*
X143930D02*X143440Y243970D01*
Y244950D02*Y243970D01*
X145890Y247400D02*X143440Y244950D01*
Y247400D02*X145890D01*
X157500Y257400D02*Y254460D01*
X156814Y253480D01*
X155736D02*X156814D01*
X155736D02*X155050Y254460D01*
Y257400D02*Y254460D01*
Y255440D02*X157500D01*
X151914Y253480D02*X153874D01*
X151914D02*X151424Y253970D01*
Y254950D02*Y253970D01*
X151914Y255440D02*X151424Y254950D01*
X151914Y255440D02*X153384D01*
Y257400D02*Y253480D01*
X152600Y255440D02*X151424Y257400D01*
X149758D02*Y253480D01*
X148484D02*X147798Y254166D01*
Y256714D02*Y254166D01*
X148484Y257400D02*X147798Y256714D01*
X148484Y257400D02*X150248D01*
X148484Y253480D02*X150248D01*
X146622Y256910D02*Y253480D01*
Y256910D02*X146132Y257400D01*
X145152D02*X146132D01*
X145152D02*X144662Y256910D01*
Y253480D01*
X142506D02*X143486D01*
X142996Y257400D02*Y253480D01*
X142506Y257400D02*X143486D01*
X141330D02*Y253480D01*
X138880Y257400D01*
Y253480D01*
X137704Y256910D02*Y253970D01*
X137214Y253480D01*
X136234D02*X137214D01*
X136234D02*X135744Y253970D01*
Y256910D02*Y253970D01*
X136234Y257400D02*X135744Y256910D01*
X136234Y257400D02*X137214D01*
X137704Y256910D02*X137214Y257400D01*
X132804D02*Y253480D01*
X131334Y255440D01*
X129864Y253480D01*
Y257400D02*Y253480D01*
X127708D02*X128688D01*
X128198Y257400D02*Y253480D01*
X127708Y257400D02*X128688D01*
X124572D02*X125846D01*
X126532Y256714D02*X125846Y257400D01*
X126532Y256714D02*Y254166D01*
X125846Y253480D01*
X124572D02*X125846D01*
X121436D02*X123396D01*
X121436D02*X120946Y253970D01*
Y254950D02*Y253970D01*
X121436Y255440D02*X120946Y254950D01*
X121436Y255440D02*X122906D01*
Y257400D02*Y253480D01*
X122122Y255440D02*X120946Y257400D01*
X119770Y256910D02*Y253970D01*
X119280Y253480D01*
X118300D02*X119280D01*
X118300D02*X117810Y253970D01*
Y256910D02*Y253970D01*
X118300Y257400D02*X117810Y256910D01*
X118300Y257400D02*X119280D01*
X119770Y256910D02*X119280Y257400D01*
X58040Y15440D02*X60000D01*
X59020Y16420D02*Y14460D01*
X58040Y25440D02*X60000D01*
X47500Y13480D02*X46520Y17400D01*
X45540Y13480D01*
X43384D02*X44364D01*
X43874Y17400D02*Y13480D01*
X43384Y17400D02*X44364D01*
X42208D02*Y13480D01*
X39758Y17400D01*
Y13480D01*
X47010Y24900D02*X45540Y22940D01*
Y21470D01*
X46030Y20980D02*X45540Y21470D01*
X46030Y20980D02*X47010D01*
X47500Y21470D02*X47010Y20980D01*
X47500Y22450D02*Y21470D01*
Y22450D02*X47010Y22940D01*
X45540D02*X47010D01*
X42404D02*X44364D01*
X41228Y21764D02*X40444Y20980D01*
Y24900D02*Y20980D01*
X39758Y24900D02*X41228D01*
X38582Y21470D02*X38092Y20980D01*
X36622D02*X38092D01*
X36622D02*X36132Y21470D01*
Y22450D02*Y21470D01*
X38582Y24900D02*X36132Y22450D01*
Y24900D02*X38582D01*
X47500Y28480D02*X46520Y32400D01*
X45540Y28480D01*
X43874Y32400D02*Y28480D01*
X42600D02*X41914Y29166D01*
Y31714D02*Y29166D01*
X42600Y32400D02*X41914Y31714D01*
X42600Y32400D02*X44364D01*
X42600Y28480D02*X44364D01*
X38778Y32400D02*X40052D01*
X40738Y31714D02*X40052Y32400D01*
X40738Y31714D02*Y29166D01*
X40052Y28480D01*
X38778D02*X40052D01*
X10100Y119510D02*X14020D01*
Y118236D02*X13334Y117550D01*
X10786D02*X13334D01*
X10100Y118236D02*X10786Y117550D01*
X10100Y120000D02*Y118236D01*
X14020Y120000D02*Y118236D01*
X10100Y116374D02*X13040D01*
X14020Y115688D01*
Y114610D01*
X13040Y113924D01*
X10100D02*X13040D01*
X12060Y116374D02*Y113924D01*
X14020Y112748D02*Y110788D01*
X10100Y111768D02*X14020D01*
X10100Y109612D02*X13040D01*
X14020Y108926D01*
Y107848D01*
X13040Y107162D01*
X10100D02*X13040D01*
X12060Y109612D02*Y107162D01*
X37500Y57400D02*Y53480D01*
X36030Y55440D01*
X34560Y53480D01*
Y57400D02*Y53480D01*
X33384Y57400D02*Y54460D01*
X32698Y53480D01*
X31620D02*X32698D01*
X31620D02*X30934Y54460D01*
Y57400D02*Y54460D01*
Y55440D02*X33384D01*
X29758Y57400D02*X27308Y53480D01*
X29758D02*X27308Y57400D01*
X24368Y53970D02*X23878Y53480D01*
X22898D02*X23878D01*
X22898D02*X22408Y53970D01*
X22898Y57400D02*X22408Y56910D01*
X22898Y57400D02*X23878D01*
X24368Y56910D02*X23878Y57400D01*
X22898Y55244D02*X23878D01*
X22408Y54754D02*Y53970D01*
Y56910D02*Y55734D01*
X22898Y55244D01*
X22408Y54754D02*X22898Y55244D01*
X21232Y54264D02*X20448Y53480D01*
Y57400D02*Y53480D01*
X19762Y57400D02*X21232D01*
X18586Y56910D02*X18096Y57400D01*
X18586Y56910D02*Y56126D01*
X17900Y55440D01*
X17312D02*X17900D01*
X17312D02*X16626Y56126D01*
Y56910D02*Y56126D01*
X17116Y57400D02*X16626Y56910D01*
X17116Y57400D02*X18096D01*
X18586Y54754D02*X17900Y55440D01*
X18586Y54754D02*Y53970D01*
X18096Y53480D01*
X17116D02*X18096D01*
X17116D02*X16626Y53970D01*
Y54754D02*Y53970D01*
X17312Y55440D02*X16626Y54754D01*
X13490Y53480D02*X15450D01*
Y55440D02*Y53480D01*
Y55440D02*X14960Y54950D01*
X13980D02*X14960D01*
X13980D02*X13490Y55440D01*
Y56910D02*Y55440D01*
X13980Y57400D02*X13490Y56910D01*
X13980Y57400D02*X14960D01*
X15450Y56910D02*X14960Y57400D01*
X12314Y56910D02*X11824Y57400D01*
X12314Y56910D02*Y53970D01*
X11824Y53480D01*
X10844D02*X11824D01*
X10844D02*X10354Y53970D01*
Y56910D02*Y53970D01*
X10844Y57400D02*X10354Y56910D01*
X10844Y57400D02*X11824D01*
X12314Y56420D02*X10354Y54460D01*
X102000Y35000D02*X104000Y37000D01*
X100000Y55000D02*Y59000D01*
X104000Y55000D02*Y35000D01*
X96000Y55000D02*X104000D01*
X96000Y35000D02*Y55000D01*
X104000Y35000D02*X96000D01*
X100000Y30905D02*Y34842D01*
X37500Y230000D02*X87500D01*
X37500Y250000D02*Y230000D01*
Y250000D02*X87500D01*
Y230000D01*
X105000Y250000D02*X175000D01*
X105000D02*Y80000D01*
X175000Y250000D02*Y80000D01*
X105000D02*X175000D01*
X165000Y70000D02*Y10000D01*
X115000D01*
Y70000D02*X165000D01*
X115000Y10000D02*Y70000D01*
X215000Y210000D02*Y80000D01*
X182500Y210000D02*X215000D01*
X182500D02*Y80000D01*
X215000D01*
X51500Y30000D02*Y10000D01*
X70000D01*
Y30000D02*Y10000D01*
X51500Y30000D02*X70000D01*
X7500Y50000D02*X87500D01*
X7500Y130000D02*Y50000D01*
Y130000D02*X87500D01*
Y50000D01*
X7500Y140000D02*X87500D01*
X7500Y220000D02*Y140000D01*
Y220000D02*X87500D01*
Y140000D01*
X111500Y256500D02*Y253000D01*
Y256500D02*X111000Y257000D01*
X110000D02*X111000D01*
X110000D02*X109500Y256500D01*
Y253000D01*
X108300Y253800D02*X107500Y253000D01*
Y257000D02*Y253000D01*
X106800Y257000D02*X108300D01*
X210500Y77500D02*X211800D01*
X212500Y76800D02*X211800Y77500D01*
X212500Y76800D02*Y74200D01*
X211800Y73500D01*
X210500D02*X211800D01*
X209300Y77000D02*Y74000D01*
X208800Y73500D01*
X207800D02*X208800D01*
X207800D02*X207300Y74000D01*
Y77000D02*Y74000D01*
X207800Y77500D02*X207300Y77000D01*
X207800Y77500D02*X208800D01*
X209300Y77000D02*X208800Y77500D01*
X206100D02*Y73500D01*
X203600Y77500D01*
Y73500D01*
X202400Y77500D02*Y73500D01*
X199900Y77500D01*
Y73500D01*
X198700Y74300D02*X197900Y73500D01*
Y77500D02*Y73500D01*
X197200Y77500D02*X198700D01*
X83000Y257500D02*X84300D01*
X85000Y256800D02*X84300Y257500D01*
X85000Y256800D02*Y254200D01*
X84300Y253500D01*
X83000D02*X84300D01*
X81800Y257000D02*Y254000D01*
X81300Y253500D01*
X80300D02*X81300D01*
X80300D02*X79800Y254000D01*
Y257000D02*Y254000D01*
X80300Y257500D02*X79800Y257000D01*
X80300Y257500D02*X81300D01*
X81800Y257000D02*X81300Y257500D01*
X78600D02*Y253500D01*
X76100Y257500D01*
Y253500D01*
X74900Y257500D02*Y253500D01*
X72400Y257500D01*
Y253500D01*
X71200Y254000D02*X70700Y253500D01*
X69200D02*X70700D01*
X69200D02*X68700Y254000D01*
Y255000D02*Y254000D01*
X71200Y257500D02*X68700Y255000D01*
Y257500D02*X71200D01*
X85000Y147000D02*Y143500D01*
Y147000D02*X84500Y147500D01*
X83500D02*X84500D01*
X83500D02*X83000Y147000D01*
Y143500D01*
X81800Y146000D02*X79800Y143500D01*
X79300Y146000D02*X81800D01*
X79800Y147500D02*Y143500D01*
X165000Y7000D02*Y3500D01*
Y7000D02*X164500Y7500D01*
X163500D02*X164500D01*
X163500D02*X163000Y7000D01*
Y3500D01*
X161800Y4000D02*X161300Y3500D01*
X159800D02*X161300D01*
X159800D02*X159300Y4000D01*
Y5000D02*Y4000D01*
X161800Y7500D02*X159300Y5000D01*
Y7500D02*X161800D01*
X90500Y36000D02*X92500D01*
X90500D02*X90000Y36500D01*
Y37500D02*Y36500D01*
X90500Y38000D02*X90000Y37500D01*
X90500Y38000D02*X92000D01*
Y40000D02*Y36000D01*
X91200Y38000D02*X90000Y40000D01*
X88800Y36800D02*X88000Y36000D01*
Y40000D02*Y36000D01*
X87300Y40000D02*X88800D01*
X68000Y37500D02*X69300D01*
X70000Y36800D02*X69300Y37500D01*
X70000Y36800D02*Y34200D01*
X69300Y33500D01*
X68000D02*X69300D01*
X66800Y37000D02*Y34000D01*
X66300Y33500D01*
X65300D02*X66300D01*
X65300D02*X64800Y34000D01*
Y37000D02*Y34000D01*
X65300Y37500D02*X64800Y37000D01*
X65300Y37500D02*X66300D01*
X66800Y37000D02*X66300Y37500D01*
X63600D02*Y33500D01*
X61100Y37500D01*
Y33500D01*
X59900Y37500D02*Y33500D01*
X57400Y37500D01*
Y33500D01*
X56200Y34000D02*X55700Y33500D01*
X54700D02*X55700D01*
X54700D02*X54200Y34000D01*
X54700Y37500D02*X54200Y37000D01*
X54700Y37500D02*X55700D01*
X56200Y37000D02*X55700Y37500D01*
X54700Y35300D02*X55700D01*
X54200Y34800D02*Y34000D01*
Y37000D02*Y35800D01*
X54700Y35300D01*
X54200Y34800D02*X54700Y35300D01*
X85000Y57000D02*Y53500D01*
Y57000D02*X84500Y57500D01*
X83500D02*X84500D01*
X83500D02*X83000Y57000D01*
Y53500D01*
X81800Y54000D02*X81300Y53500D01*
X80300D02*X81300D01*
X80300D02*X79800Y54000D01*
X80300Y57500D02*X79800Y57000D01*
X80300Y57500D02*X81300D01*
X81800Y57000D02*X81300Y57500D01*
X80300Y55300D02*X81300D01*
X79800Y54800D02*Y54000D01*
Y57000D02*Y55800D01*
X80300Y55300D01*
X79800Y54800D02*X80300Y55300D01*
M02*
