G04 start of page 3 for group 1 idx 1 *
G04 Title: Wireless Club Reflow Oven, bottom *
G04 Creator: pcb 20140316 *
G04 CreationDate: Mon 24 Oct 2016 07:50:18 PM GMT UTC *
G04 For: kevin *
G04 Format: Gerber/RS-274X *
G04 PCB-Dimensions (mil): 2250.00 2650.00 *
G04 PCB-Coordinate-Origin: lower left *
%MOIN*%
%FSLAX25Y25*%
%LNBOTTOM*%
%ADD32C,0.0394*%
%ADD31C,0.0410*%
%ADD30C,0.1250*%
%ADD29C,0.0350*%
%ADD28C,0.1690*%
%ADD27C,0.0600*%
%ADD26C,0.0884*%
%ADD25C,0.0001*%
%ADD24C,0.0690*%
%ADD23C,0.0250*%
%ADD22C,0.0100*%
G54D22*X150000Y65000D02*X160000Y55000D01*
X150000Y65000D02*X140000D01*
X130000Y75000D01*
G54D23*X65000Y35000D02*Y25000D01*
X110000Y70000D02*Y60000D01*
X92500Y62500D02*X65000Y35000D01*
X210000Y85000D02*X200000Y75000D01*
X150000D01*
X97500Y82500D02*X110000Y70000D01*
Y60000D02*X65000Y15000D01*
G54D22*X170000Y225000D02*X130000Y185000D01*
X110000Y235000D02*X120000Y225000D01*
G54D23*X210000Y85000D02*X200000Y95000D01*
Y175000D01*
X210000Y185000D01*
G54D22*X130000Y75000D02*Y185000D01*
X120000Y225000D02*Y65000D01*
G54D23*X97500Y92500D02*Y82500D01*
X110000Y115000D02*X100000Y125000D01*
X82500Y235000D02*X42500D01*
Y245000D02*Y235000D01*
Y245000D02*X82500D01*
X110000Y115000D02*X92500Y97500D01*
Y62500D01*
X110000Y105000D02*X97500Y92500D01*
X72500Y215000D02*Y125000D01*
G54D22*X12500D02*Y215000D01*
G54D23*X100000Y125000D02*X82500D01*
Y215000D01*
Y245000D02*Y215000D01*
G54D24*X110000Y165000D03*
Y155000D03*
Y145000D03*
Y135000D03*
Y125000D03*
X12500D03*
X22500D03*
X32500D03*
X42500D03*
X62500D03*
X52500D03*
X72500D03*
G54D25*G36*
X79050Y128450D02*Y121550D01*
X85950D01*
Y128450D01*
X79050D01*
G37*
G54D24*X110000Y215000D03*
Y205000D03*
Y195000D03*
Y185000D03*
G54D25*G36*
X106550Y248450D02*Y241550D01*
X113450D01*
Y248450D01*
X106550D01*
G37*
G54D24*X110000Y235000D03*
Y225000D03*
X170000Y175000D03*
Y185000D03*
Y195000D03*
Y205000D03*
Y215000D03*
Y225000D03*
Y235000D03*
Y245000D03*
X210000Y205000D03*
Y195000D03*
Y185000D03*
X110000Y175000D03*
X82500Y235000D03*
Y245000D03*
X72500D03*
Y235000D03*
X62500D03*
X52500D03*
X42500D03*
X62500Y245000D03*
X52500D03*
X42500D03*
X12500Y215000D03*
X22500D03*
X32500D03*
X42500D03*
X62500D03*
X52500D03*
X72500D03*
G54D25*G36*
X79050Y218450D02*Y211550D01*
X85950D01*
Y218450D01*
X79050D01*
G37*
G54D24*X110000Y115000D03*
Y105000D03*
Y95000D03*
Y85000D03*
X170000D03*
Y95000D03*
Y105000D03*
Y115000D03*
Y125000D03*
Y135000D03*
Y145000D03*
Y155000D03*
Y165000D03*
X210000Y175000D03*
Y165000D03*
Y155000D03*
Y145000D03*
Y135000D03*
Y125000D03*
Y115000D03*
Y105000D03*
Y95000D03*
G54D25*G36*
X206550Y88450D02*Y81550D01*
X213450D01*
Y88450D01*
X206550D01*
G37*
G36*
X116550Y68450D02*Y61550D01*
X123450D01*
Y68450D01*
X116550D01*
G37*
G54D26*X100000Y65000D03*
G54D24*X120000Y55000D03*
Y45000D03*
Y35000D03*
Y25000D03*
Y15000D03*
G54D25*G36*
X95578Y29421D02*Y20578D01*
X104421D01*
Y29421D01*
X95578D01*
G37*
G54D24*X65000Y15000D03*
Y25000D03*
X160000Y15000D03*
Y25000D03*
Y35000D03*
Y45000D03*
Y55000D03*
Y65000D03*
G54D27*X150000Y75000D03*
G54D28*X20000Y245000D03*
X205000D03*
Y20000D03*
X20000D03*
G54D29*G54D30*G54D31*G54D32*G54D31*G54D32*G54D31*M02*
